<svg width="35" height="35" viewBox="0 0 35 35" fill="none" xmlns="http://www.w3.org/2000/svg">
<g clip-path="url(#clip0_100_423)">
<path d="M34.4531 17.5C34.4531 26.8658 26.8663 34.4531 17.5 34.4531C8.13367 34.4531 0.546875 26.8658 0.546875 17.5C0.546875 8.13367 8.13367 0.546875 17.5 0.546875C26.8663 0.546875 34.4531 8.13367 34.4531 17.5Z" fill="#FFE6A9"/>
<path d="M31.7188 17.5C31.7188 25.3493 25.3542 31.7188 17.5 31.7188C9.64578 31.7188 3.28125 25.3493 3.28125 17.5C3.28125 9.65125 9.64578 3.28125 17.5 3.28125C25.3542 3.28125 31.7188 9.65125 31.7188 17.5Z" fill="#FFDA7E"/>
<path d="M28.9844 17.5C28.9844 23.8377 23.8454 28.9844 17.5 28.9844C11.1546 28.9844 6.01562 23.8377 6.01562 17.5C6.01562 11.1628 11.1546 6.01562 17.5 6.01562C23.8454 6.01562 28.9844 11.1628 28.9844 17.5Z" fill="#FFCE54"/>
<path d="M22.1484 30.8984L21.0547 31.9922H13.9453L12.8516 30.8984V27.0703H22.1484V30.8984Z" fill="#CCD1D9"/>
<path d="M26.5234 17.5C26.5234 12.5163 22.4831 8.47656 17.5 8.47656C12.5169 8.47656 8.47656 12.5163 8.47656 17.5C8.47656 20.7812 10.2331 23.6436 12.8516 25.2235V27.0703H22.1484V25.2235C24.7669 23.6436 26.5234 20.7812 26.5234 17.5Z" fill="#E6E9ED"/>
<path d="M15.0391 31.9922C15.0391 31.9922 15.5859 33.0859 17.5 33.0859C19.4141 33.0859 19.9609 31.9922 19.9609 31.9922H15.0391Z" fill="#656D78"/>
<path d="M12.578 28.9844C12.4337 28.9844 12.3134 28.8712 12.3052 28.7257C12.2964 28.5753 12.4118 28.4457 12.5633 28.4375L22.4065 27.8906C22.552 27.877 22.6859 27.9984 22.6941 28.1493C22.7023 28.3002 22.5875 28.4293 22.436 28.4364L12.5928 28.9833C12.5884 28.9844 12.583 28.9844 12.578 28.9844ZM12.578 30.625C12.4337 30.625 12.3134 30.5118 12.3052 30.3663C12.2964 30.216 12.4118 30.0863 12.5633 30.0781L22.4065 29.5313C22.552 29.5154 22.6859 29.639 22.6941 29.7899C22.7023 29.9409 22.5875 30.0699 22.436 30.077L12.5928 30.6239C12.5884 30.625 12.583 30.625 12.578 30.625Z" fill="#E6E9ED"/>
<path d="M21.875 15.0391C22.482 15.0391 22.9688 15.5263 22.9688 16.1328C22.9688 16.7393 22.482 17.2266 21.875 17.2266C22.3289 17.2266 22.6953 17.593 22.6953 18.0469C22.6953 18.3859 22.493 18.6709 22.2031 18.8016C22.5859 19.5289 22.4711 20.4367 21.8646 21.0443C21.4107 21.4922 20.7982 21.6727 20.2125 21.5797H20.207C20.1633 21.8416 20.037 22.0938 19.8346 22.2961C19.2992 22.832 18.4346 22.832 17.8992 22.2961C17.6422 22.0336 17.5055 21.6945 17.5 21.35V18.8672V15.0391V12.8516C17.5 12.2451 17.9867 11.7578 18.5938 11.7578C19.2008 11.7578 19.6875 12.2451 19.6875 12.8516C19.6875 13.0041 19.6547 13.1469 19.6 13.2776C19.8406 13.0648 20.1584 12.9391 20.5078 12.9391C21.268 12.9391 21.875 13.5455 21.875 14.3062C21.875 14.5852 21.793 14.8477 21.6453 15.0609C21.7219 15.05 21.7984 15.0391 21.875 15.0391ZM17.5 18.8672V21.35C17.4945 21.6945 17.3633 22.0336 17.1008 22.2955C16.5654 22.8315 15.7008 22.8315 15.1654 22.2955C14.963 22.0938 14.8367 21.8416 14.793 21.5791H14.7875C14.2078 21.6721 13.5898 21.4916 13.1414 21.0437C12.5344 20.4367 12.4195 19.5284 12.7969 18.801C12.507 18.6703 12.3047 18.3854 12.3047 18.0463C12.3047 17.5924 12.6711 17.226 13.125 17.226C12.518 17.226 12.0312 16.7388 12.0312 16.1323C12.0312 15.5258 12.518 15.0385 13.125 15.0385C13.207 15.0385 13.2836 15.0495 13.3547 15.0604C13.207 14.8477 13.125 14.5852 13.125 14.3062C13.125 13.5455 13.7375 12.9391 14.4922 12.9391C14.8422 12.9391 15.1594 13.0648 15.4 13.2776C15.3453 13.1469 15.3125 13.0041 15.3125 12.8516C15.3125 12.2451 15.7992 11.7578 16.4062 11.7578C17.0133 11.7578 17.5 12.2451 17.5 12.8516V15.0391V18.8672Z" fill="#EC87C0"/>
<path d="M22.9688 18.0469C22.9688 17.7412 22.8419 17.465 22.6384 17.2659C23.0021 17.0204 23.2422 16.6042 23.2422 16.1328C23.2422 15.4481 22.7352 14.8854 22.0779 14.7859C22.1244 14.6333 22.1484 14.472 22.1484 14.3062C22.1484 13.4017 21.4123 12.6656 20.5078 12.6656C20.3153 12.6656 20.1288 12.7001 19.9516 12.763C19.9052 12.0509 19.3173 11.4844 18.5938 11.4844C18.1448 11.4844 17.7494 11.7042 17.5 12.0395C17.2506 11.7042 16.8552 11.4844 16.4062 11.4844C15.6827 11.4844 15.0948 12.0509 15.0484 12.763C14.8717 12.7006 14.6847 12.6656 14.4922 12.6656C13.5877 12.6656 12.8516 13.4017 12.8516 14.3062C12.8516 14.4725 12.8756 14.6338 12.9221 14.7859C12.2648 14.8854 11.7578 15.4481 11.7578 16.1328C11.7578 16.6042 11.9973 17.0204 12.3616 17.2659C12.1581 17.465 12.0312 17.7412 12.0312 18.0469C12.0312 18.387 12.1948 18.6993 12.4573 18.906C12.1494 19.7094 12.3293 20.6183 12.9478 21.2373C13.3596 21.6491 13.918 21.8766 14.49 21.8766C14.5217 21.8766 14.5529 21.8706 14.5841 21.869C14.6628 22.1003 14.7935 22.312 14.9712 22.4891C15.2819 22.7998 15.6942 22.9715 16.1323 22.9715C16.5703 22.9715 16.9827 22.8003 17.2933 22.4891C17.372 22.4109 17.4404 22.3251 17.5 22.2348C17.5596 22.3245 17.628 22.4098 17.7056 22.4891C18.0162 22.7998 18.4286 22.9715 18.8666 22.9715C19.3047 22.9715 19.717 22.8003 20.0277 22.4897C20.2065 22.3109 20.3383 22.0981 20.4159 21.869C20.4498 21.8706 20.4837 21.8772 20.5171 21.8772C21.0891 21.8772 21.636 21.6535 22.0571 21.2373C22.6795 20.6145 22.8566 19.7017 22.5438 18.9049C22.8058 18.6982 22.9688 18.3865 22.9688 18.0469ZM15.3584 22.102C15.2004 21.945 15.0981 21.7487 15.0609 21.5245C14.9888 21.1745 15.0998 20.8113 15.3584 20.5538C15.4651 20.4477 15.4651 20.2737 15.3584 20.1671C15.2518 20.0605 15.0784 20.0605 14.9718 20.1671C14.659 20.4799 14.4982 20.8966 14.4998 21.3188C14.0662 21.3221 13.6462 21.1619 13.335 20.8507C12.8253 20.341 12.7072 19.5683 13.0402 18.9263C13.1168 18.778 13.2152 18.643 13.335 18.5243C13.9738 17.8872 15.0145 17.8883 15.6554 18.5298C15.762 18.6364 15.9354 18.6364 16.042 18.5298C16.1487 18.4231 16.1487 18.2498 16.042 18.1431C15.1878 17.29 13.8004 17.2873 12.9489 18.1371C12.8647 18.2208 12.7892 18.3116 12.7203 18.4073C12.6328 18.3088 12.5781 18.1847 12.5781 18.0469C12.5781 17.745 12.8231 17.5 13.125 17.5C13.2759 17.5 13.3984 17.3775 13.3984 17.2266C13.3984 17.0756 13.2759 16.9531 13.125 16.9531C12.6727 16.9531 12.3047 16.5851 12.3047 16.1328C12.3047 15.6805 12.6727 15.3125 13.125 15.3125C13.1595 15.3125 13.1884 15.3185 13.2207 15.3223C13.5291 15.7106 13.9896 15.9474 14.4922 15.9474C14.6431 15.9474 14.7656 15.8249 14.7656 15.674C14.7656 15.523 14.6431 15.4005 14.4922 15.4005C14.1241 15.4005 13.7845 15.2173 13.5795 14.9062C13.4608 14.735 13.3984 14.5277 13.3984 14.3068C13.3984 13.7036 13.889 13.213 14.4922 13.213C14.7547 13.213 15.0046 13.3049 15.1988 13.4684C15.429 13.9234 15.8873 14.2188 16.4062 14.2188C16.5572 14.2188 16.6797 14.0963 16.6797 13.9453C16.6797 13.7944 16.5572 13.6719 16.4062 13.6719C16.0748 13.6719 15.779 13.4761 15.6521 13.172C15.6084 13.0676 15.5859 12.9593 15.5859 12.8516C15.5859 12.3993 15.954 12.0312 16.4062 12.0312C16.8585 12.0312 17.2266 12.3993 17.2266 12.8516V15.0391C17.2266 15.073 17.2145 15.8594 16.1328 15.8594C15.9819 15.8594 15.8594 15.9819 15.8594 16.1328C15.8594 16.2838 15.9819 16.4062 16.1328 16.4062C16.6228 16.4062 16.9761 16.2788 17.2266 16.0945V18.7928C17.1582 18.8973 16.9695 19.1406 16.6797 19.1406C16.5287 19.1406 16.4062 19.2631 16.4062 19.4141C16.4062 19.565 16.5287 19.6875 16.6797 19.6875C16.8973 19.6875 17.0773 19.6208 17.2266 19.5322V21.3456C17.2222 21.6322 17.1084 21.9012 16.9072 22.1025C16.4916 22.5181 15.7741 22.5187 15.3584 22.102ZM21.6721 20.8496C21.3516 21.1652 20.9327 21.3238 20.4996 21.3194C20.5013 20.8934 20.3399 20.4783 20.0282 20.1671C19.9216 20.0605 19.7482 20.0605 19.6416 20.1671C19.5349 20.2737 19.5349 20.4477 19.6416 20.5538C19.9002 20.8119 20.0113 21.175 19.9374 21.5348C19.9019 21.7492 19.7996 21.945 19.6416 22.1025C19.2259 22.5181 18.5068 22.5165 18.0945 22.1041C17.8921 21.898 17.7778 21.6284 17.7734 21.3456V19.5322C17.9227 19.6208 18.1027 19.6875 18.3203 19.6875C18.4713 19.6875 18.5938 19.565 18.5938 19.4141C18.5938 19.2631 18.4713 19.1406 18.3203 19.1406C18.0294 19.1406 17.8407 18.8962 17.7734 18.7912V16.0945C18.0239 16.2788 18.3772 16.4062 18.8672 16.4062C19.0181 16.4062 19.1406 16.2838 19.1406 16.1328C19.1406 15.9819 19.0181 15.8594 18.8672 15.8594C17.821 15.8594 17.7751 15.1238 17.7734 15.0369V12.8516C17.7734 12.3993 18.1415 12.0312 18.5938 12.0312C19.046 12.0312 19.4141 12.3993 19.4141 12.8516C19.4141 12.9593 19.3916 13.0676 19.3473 13.1726C19.221 13.4761 18.9252 13.6719 18.5938 13.6719C18.4428 13.6719 18.3203 13.7944 18.3203 13.9453C18.3203 14.0963 18.4428 14.2188 18.5938 14.2188C19.1127 14.2188 19.571 13.9234 19.8007 13.4684C19.9954 13.3044 20.2453 13.2125 20.5078 13.2125C21.1209 13.2125 21.6016 13.6932 21.6016 14.3062C21.6016 14.5266 21.5392 14.7339 21.4167 14.9105C21.2155 15.2168 20.8759 15.4 20.5078 15.4C20.3569 15.4 20.2344 15.5225 20.2344 15.6734C20.2344 15.8244 20.3569 15.9469 20.5078 15.9469C21.0126 15.9469 21.4747 15.709 21.7798 15.3218C21.8116 15.3185 21.8433 15.3125 21.875 15.3125C22.3273 15.3125 22.6953 15.6805 22.6953 16.1328C22.6953 16.5851 22.3273 16.9531 21.875 16.9531C21.7241 16.9531 21.6016 17.0756 21.6016 17.2266C21.6016 17.3775 21.7241 17.5 21.875 17.5C22.1769 17.5 22.4219 17.745 22.4219 18.0469C22.4219 18.1825 22.3683 18.3055 22.283 18.4034C22.2168 18.3105 22.1419 18.2213 22.0577 18.1377C21.2062 17.2862 19.8182 17.2895 18.964 18.1431C18.8573 18.2498 18.8573 18.4231 18.964 18.5298C19.0706 18.6364 19.244 18.6364 19.3506 18.5298C19.991 17.8888 21.0317 17.8861 21.671 18.5243C21.7924 18.6457 21.8881 18.7791 21.9609 18.929C22.2972 19.5677 22.1813 20.3399 21.6721 20.8496Z" fill="#D770AD"/>
</g>
<defs>
<clipPath id="clip0_100_423">
<rect width="35" height="35" fill="white"/>
</clipPath>
</defs>
</svg>
