<svg width="35" height="35" viewBox="0 0 35 35" fill="none" xmlns="http://www.w3.org/2000/svg">
<path d="M10.9377 31.1719H12.5018C12.6405 31.1709 12.7772 31.1385 12.9016 31.0772C13.026 31.0159 13.135 30.9271 13.2202 30.8177C13.3055 30.7082 13.3648 30.5809 13.3938 30.4452C13.4228 30.3096 13.4207 30.1691 13.3877 30.0344L12.9666 28.3609C12.92 28.1755 12.9164 27.9818 12.9559 27.7948C12.9954 27.6077 13.0771 27.4321 13.1946 27.2813C13.3122 27.1305 13.4626 27.0085 13.6344 26.9245C13.8062 26.8406 13.9949 26.7969 14.1861 26.7969H20.8143C21.0055 26.7969 21.1942 26.8406 21.366 26.9245C21.5378 27.0085 21.6882 27.1305 21.8058 27.2813C21.9233 27.4321 22.005 27.6077 22.0445 27.7948C22.084 27.9818 22.0803 28.1755 22.0338 28.3609L21.6127 30.0344C21.5797 30.1691 21.5776 30.3096 21.6066 30.4452C21.6356 30.5809 21.6949 30.7082 21.7802 30.8177C21.8654 30.9271 21.9743 31.0159 22.0988 31.0772C22.2232 31.1385 22.3599 31.1709 22.4986 31.1719H24.0627C24.6429 31.1719 25.1993 30.9414 25.6095 30.5312C26.0197 30.1209 26.2502 29.5645 26.2502 28.9844C26.2502 25.0961 23.7346 22.1211 20.2346 21.0273C20.1183 20.9922 20.0171 20.9194 19.9468 20.8204C19.8764 20.7214 19.8411 20.6018 19.8463 20.4805C19.8561 20.3486 19.8962 20.2207 19.9636 20.1069C20.0309 19.993 20.1237 19.8963 20.2346 19.8242C20.949 19.2615 21.4703 18.4902 21.726 17.6175C21.9817 16.7448 21.9591 15.8141 21.6614 14.9548C21.3636 14.0955 20.8055 13.3504 20.0646 12.823C19.3237 12.2957 18.4369 12.0123 17.5275 12.0123C16.6181 12.0123 15.7313 12.2957 14.9905 12.823C14.2496 13.3504 13.6915 14.0955 13.3937 14.9548C13.0959 15.8141 13.0733 16.7448 13.3291 17.6175C13.5848 18.4902 14.1061 19.2615 14.8205 19.8242C14.9301 19.898 15.0211 19.9962 15.0866 20.1109C15.152 20.2257 15.1901 20.354 15.1979 20.4859C15.203 20.6073 15.1677 20.7269 15.0974 20.8259C15.0271 20.9249 14.9258 20.9977 14.8096 21.0328C11.3041 22.1266 8.79395 25.1016 8.79395 28.9898C8.79526 29.5616 9.02035 30.11 9.42102 30.5179C9.82169 30.9257 10.3661 31.1604 10.9377 31.1719Z" fill="#F45B66"/>
<path d="M17.5 30.625C18.1041 30.625 18.5938 30.1353 18.5938 29.5312C18.5938 28.9272 18.1041 28.4375 17.5 28.4375C16.8959 28.4375 16.4062 28.9272 16.4062 29.5312C16.4062 30.1353 16.8959 30.625 17.5 30.625Z" fill="#680B12"/>
<path d="M6.50234 11.643C6.42834 11.8583 6.28898 12.0452 6.1037 12.1775C5.91841 12.3099 5.69645 12.3811 5.46875 12.3812C4.88859 12.3812 4.33219 12.6117 3.92195 13.022C3.51172 13.4322 3.28125 13.9886 3.28125 14.5687V17.15C3.28125 17.7302 3.51172 18.2866 3.92195 18.6968C4.33219 19.107 4.88859 19.3375 5.46875 19.3375C5.69645 19.3377 5.91841 19.4089 6.1037 19.5412C6.28898 19.6736 6.42834 19.8604 6.50234 20.0758C6.57891 20.2672 6.65547 20.4641 6.74297 20.6227C6.84417 20.8277 6.87855 21.0594 6.84127 21.285C6.80399 21.5106 6.69694 21.7188 6.53516 21.8805C6.12607 22.2906 5.89632 22.8461 5.89632 23.4254C5.89632 24.0046 6.12607 24.5602 6.53516 24.9703L8.36172 26.7969C8.39034 26.8219 8.4215 26.8439 8.45469 26.8625C8.28223 27.5657 8.19773 28.2877 8.20312 29.0117C8.20312 29.7369 8.49121 30.4324 9.004 30.9452C9.5168 31.458 10.2123 31.7461 10.9375 31.7461H12.4961C12.7182 31.7459 12.9374 31.6952 13.1371 31.5978C13.3368 31.5005 13.5117 31.359 13.6486 31.1841C13.7856 31.0092 13.881 30.8055 13.9277 30.5883C13.9743 30.3711 13.971 30.1462 13.918 29.9305L13.4969 28.2516C13.4714 28.147 13.47 28.0381 13.4927 27.933C13.5154 27.8278 13.5617 27.7292 13.6281 27.6445C13.6927 27.5606 13.7754 27.4923 13.8701 27.4449C13.9649 27.3976 14.0691 27.3723 14.175 27.3711H20.8141C20.92 27.3723 21.0242 27.3976 21.1189 27.4449C21.2137 27.4923 21.2964 27.5606 21.3609 27.6445C21.4273 27.7292 21.4736 27.8278 21.4964 27.933C21.5191 28.0381 21.5177 28.147 21.4922 28.2516L21.0711 29.9305C21.0226 30.1452 21.0232 30.3681 21.0727 30.5826C21.1221 30.7971 21.2193 30.9977 21.357 31.1695C21.4946 31.3414 21.6692 31.4799 21.8678 31.575C22.0663 31.6701 22.2838 31.7192 22.5039 31.7188H24.0625C24.7877 31.7188 25.4832 31.4307 25.996 30.9179C26.5088 30.4051 26.7969 29.7096 26.7969 28.9844C26.8 28.2695 26.7155 27.5569 26.5453 26.8625C26.5785 26.8439 26.6097 26.8219 26.6383 26.7969L28.4648 24.9703C28.8739 24.5602 29.1037 24.0046 29.1037 23.4254C29.1037 22.8461 28.8739 22.2906 28.4648 21.8805C28.3031 21.7188 28.196 21.5106 28.1587 21.285C28.1215 21.0594 28.1558 20.8277 28.257 20.6227C28.3445 20.4367 28.4211 20.2398 28.4977 20.0758C28.5717 19.8604 28.711 19.6736 28.8963 19.5412C29.0816 19.4089 29.3036 19.3377 29.5312 19.3375C30.1114 19.3375 30.6678 19.107 31.078 18.6968C31.4883 18.2866 31.7188 17.7302 31.7188 17.15V14.5687C31.7188 13.9886 31.4883 13.4322 31.078 13.022C30.6678 12.6117 30.1114 12.3812 29.5312 12.3812C29.3036 12.3811 29.0816 12.3099 28.8963 12.1775C28.711 12.0452 28.5717 11.8583 28.4977 11.643C28.4211 11.4516 28.3445 11.2547 28.257 11.0687C28.1558 10.8637 28.1215 10.6321 28.1587 10.4064C28.196 10.1808 28.3031 9.97256 28.4648 9.81094C28.8739 9.40086 29.1037 8.84526 29.1037 8.26602C29.1037 7.68677 28.8739 7.13118 28.4648 6.72109L26.6383 4.92188C26.2282 4.51278 25.6726 4.28304 25.0934 4.28304C24.5141 4.28304 23.9585 4.51278 23.5484 4.92188C23.3868 5.08366 23.1786 5.19071 22.9529 5.22799C22.7273 5.26526 22.4957 5.23089 22.2906 5.12969C22.1047 5.04219 21.9078 4.96562 21.7437 4.88906C21.5188 4.81836 21.3228 4.67688 21.1848 4.48569C21.0468 4.29451 20.9743 4.06386 20.9781 3.82812C20.9781 3.24796 20.7477 2.69156 20.3374 2.28133C19.9272 1.87109 19.3708 1.64063 18.7906 1.64062H16.2094C15.6292 1.64063 15.0728 1.87109 14.6626 2.28133C14.2523 2.69156 14.0219 3.24796 14.0219 3.82812C14.0217 4.05582 13.9505 4.27779 13.8181 4.46307C13.6858 4.64836 13.4989 4.78772 13.2836 4.86172C13.0922 4.93828 12.8953 5.01484 12.7094 5.10234C12.507 5.20699 12.2771 5.24586 12.0516 5.2135C11.8261 5.18115 11.6163 5.0792 11.4516 4.92188C11.0415 4.51278 10.4859 4.28304 9.90664 4.28304C9.3274 4.28304 8.7718 4.51278 8.36172 4.92188L6.5625 6.72109C6.15341 7.13118 5.92367 7.68677 5.92367 8.26602C5.92367 8.84526 6.15341 9.40086 6.5625 9.81094C6.72428 9.97256 6.83134 10.1808 6.86861 10.4064C6.90589 10.6321 6.87151 10.8637 6.77031 11.0687C6.65547 11.2547 6.5625 11.4516 6.50234 11.643ZM24.0625 30.625H22.5039C22.447 30.6259 22.3907 30.6134 22.3395 30.5888C22.2882 30.5641 22.2434 30.5278 22.2086 30.4828C22.1744 30.4383 22.1508 30.3867 22.1394 30.3317C22.1281 30.2768 22.1293 30.22 22.143 30.1656L22.5641 28.4922C22.6305 28.2262 22.6355 27.9486 22.5786 27.6804C22.5218 27.4122 22.4046 27.1604 22.2359 26.9443C22.0672 26.7282 21.8515 26.5533 21.6051 26.433C21.3588 26.3127 21.0882 26.2501 20.8141 26.25H14.1859C13.9118 26.2501 13.6412 26.3127 13.3949 26.433C13.1485 26.5533 12.9328 26.7282 12.7641 26.9443C12.5954 27.1604 12.4782 27.4122 12.4214 27.6804C12.3645 27.9486 12.3695 28.2262 12.4359 28.4922L12.857 30.1656C12.8707 30.22 12.8719 30.2768 12.8606 30.3317C12.8492 30.3867 12.8256 30.4383 12.7914 30.4828C12.7566 30.5278 12.7118 30.5641 12.6605 30.5888C12.6093 30.6134 12.553 30.6259 12.4961 30.625H10.9375C10.5024 30.625 10.0851 30.4521 9.7774 30.1445C9.46973 29.8368 9.29688 29.4195 9.29688 28.9844C9.30144 27.3051 9.85404 25.6733 10.8707 24.3368C11.8874 23.0003 13.3126 22.0322 14.9297 21.5797H14.9734C15.1968 21.5007 15.3884 21.3514 15.5196 21.1542C15.6507 20.9569 15.7143 20.7224 15.7008 20.4859C15.6971 20.2869 15.6496 20.0911 15.5617 19.9125C15.4738 19.7338 15.3476 19.5767 15.1922 19.4523L15.132 19.3977C14.6858 19.0436 14.3242 18.5945 14.0737 18.083C13.8231 17.5715 13.6897 17.0106 13.6835 16.441C13.6772 15.8715 13.7981 15.3077 14.0373 14.7908C14.2766 14.2739 14.6281 13.8169 15.0664 13.4531C15.5071 13.0893 16.0237 12.8287 16.5782 12.6905C17.1328 12.5524 17.7112 12.5401 18.2711 12.6547C18.9824 12.8039 19.6366 13.1524 20.1571 13.6597C20.6777 14.1669 21.043 14.8119 21.2105 15.5191C21.378 16.2264 21.3407 16.9667 21.103 17.6535C20.8652 18.3404 20.4369 18.9453 19.868 19.3977L19.8078 19.4523C19.6532 19.5775 19.5277 19.7347 19.4398 19.9132C19.352 20.0917 19.304 20.2871 19.2992 20.4859C19.2857 20.7224 19.3493 20.9569 19.4804 21.1542C19.6116 21.3514 19.8032 21.5007 20.0266 21.5797H20.0703C21.6919 22.0335 23.1204 23.0057 24.1375 24.3477C25.1547 25.6897 25.7045 27.3278 25.7031 29.0117C25.696 29.4421 25.5199 29.8524 25.213 30.1542C24.9061 30.456 24.4929 30.6251 24.0625 30.625ZM7.525 12.0312C7.59063 11.8562 7.66172 11.674 7.73828 11.4844C7.92984 11.0772 7.99115 10.6208 7.91383 10.1774C7.83652 9.73408 7.62435 9.32537 7.30625 9.00703C7.10254 8.8021 6.9882 8.52489 6.9882 8.23594C6.9882 7.94698 7.10254 7.66977 7.30625 7.46484L9.13281 5.63828C9.23439 5.53659 9.35502 5.45591 9.4878 5.40087C9.62058 5.34583 9.7629 5.3175 9.90664 5.3175C10.0504 5.3175 10.1927 5.34583 10.3255 5.40087C10.4583 5.45591 10.5789 5.53659 10.6805 5.63828C10.9984 5.95523 11.4061 6.16669 11.8483 6.24398C12.2905 6.32126 12.7458 6.26063 13.1523 6.07031L13.6992 5.85703C14.1125 5.70136 14.469 5.42423 14.7219 5.06209C14.9747 4.69995 15.1119 4.26977 15.1156 3.82812C15.1156 3.53804 15.2309 3.25984 15.436 3.05473C15.6411 2.84961 15.9193 2.73438 16.2094 2.73438H18.7906C19.0807 2.73438 19.3589 2.84961 19.564 3.05473C19.7691 3.25984 19.8844 3.53804 19.8844 3.82812C19.8846 4.27769 20.0233 4.71627 20.2816 5.0842C20.5399 5.45213 20.9053 5.73152 21.3281 5.88438L21.875 6.09766C22.2822 6.28922 22.7386 6.35052 23.182 6.27321C23.6253 6.19589 24.034 5.98372 24.3523 5.66562C24.5573 5.46191 24.8345 5.34757 25.1234 5.34757C25.4124 5.34757 25.6896 5.46191 25.8945 5.66562L27.7211 7.49219C27.8228 7.59377 27.9035 7.7144 27.9585 7.84717C28.0135 7.97995 28.0419 8.12228 28.0419 8.26602C28.0419 8.40975 28.0135 8.55208 27.9585 8.68486C27.9035 8.81764 27.8228 8.93826 27.7211 9.03984C27.4042 9.35775 27.1927 9.76547 27.1154 10.2077C27.0381 10.6499 27.0987 11.1052 27.2891 11.5117C27.3656 11.6867 27.4367 11.869 27.5023 12.0586C27.658 12.4719 27.9351 12.8284 28.2973 13.0812C28.6594 13.334 29.0896 13.4713 29.5312 13.475C29.8213 13.475 30.0995 13.5902 30.3046 13.7954C30.5098 14.0005 30.625 14.2787 30.625 14.5687V17.15C30.625 17.4401 30.5098 17.7183 30.3046 17.9234C30.0995 18.1285 29.8213 18.2437 29.5312 18.2437C29.0817 18.2439 28.6431 18.3826 28.2752 18.641C27.9072 18.8993 27.6279 19.2647 27.475 19.6875C27.4094 19.8625 27.3383 20.0448 27.2617 20.2344C27.0702 20.6416 27.0089 21.098 27.0862 21.5413C27.1635 21.9847 27.3757 22.3934 27.6938 22.7117C27.8975 22.9166 28.0118 23.1939 28.0118 23.4828C28.0118 23.7718 27.8975 24.049 27.6938 24.2539L26.1789 25.7687C25.6711 24.5178 24.8876 23.3975 23.8868 22.4913C22.886 21.5852 21.6936 20.9165 20.3984 20.5352C20.3971 20.5188 20.3971 20.5023 20.3984 20.4859C20.3984 20.382 20.5242 20.2836 20.5242 20.2836C20.5673 20.2568 20.606 20.2236 20.6391 20.1852C21.3525 19.5927 21.884 18.8107 22.1724 17.9294C22.4608 17.048 22.4944 16.1031 22.2692 15.2035C22.044 14.3039 21.5693 13.4863 20.8996 12.8447C20.23 12.2031 19.3928 11.7638 18.4844 11.5773C17.7655 11.435 17.024 11.4533 16.313 11.6311C15.6021 11.8088 14.9392 12.1416 14.3719 12.6055C13.8126 13.0673 13.3623 13.6469 13.0532 14.3031C12.7441 14.9592 12.5838 15.6755 12.5838 16.4008C12.5838 17.1261 12.7441 17.8424 13.0532 18.4985C13.3623 19.1546 13.8126 19.7343 14.3719 20.1961C14.3975 20.229 14.429 20.2568 14.4648 20.2781C14.4648 20.2781 14.5961 20.3766 14.5961 20.4859C14.5961 20.4859 14.5961 20.5297 14.5961 20.5242H14.5305C13.2476 20.9063 12.0665 21.5708 11.0738 22.4688C10.0811 23.3669 9.30206 24.4757 8.79375 25.7141L7.30625 24.2266C7.20456 24.125 7.12388 24.0044 7.06884 23.8716C7.0138 23.7388 6.98547 23.5965 6.98547 23.4527C6.98547 23.309 7.0138 23.1667 7.06884 23.0339C7.12388 22.9011 7.20456 22.7805 7.30625 22.6789C7.61748 22.3632 7.82545 21.9604 7.90261 21.5239C7.97976 21.0873 7.92245 20.6376 7.73828 20.2344C7.66172 20.0594 7.59063 19.8771 7.525 19.6875C7.37215 19.2647 7.09275 18.8993 6.72482 18.641C6.3569 18.3826 5.91831 18.2439 5.46875 18.2437C5.17867 18.2437 4.90047 18.1285 4.69535 17.9234C4.49023 17.7183 4.375 17.4401 4.375 17.15V14.5687C4.375 14.2787 4.49023 14.0005 4.69535 13.7954C4.90047 13.5902 5.17867 13.475 5.46875 13.475C5.91831 13.4748 6.3569 13.3361 6.72482 13.0778C7.09275 12.8194 7.37215 12.454 7.525 12.0312Z" fill="#680B12"/>
</svg>
