<svg width="35" height="35" viewBox="0 0 35 35" fill="none" xmlns="http://www.w3.org/2000/svg">
<g clip-path="url(#clip0_100_437)">
<path d="M12.6328 30.1328C14.7109 27.9453 14.6562 24.5 12.5234 22.4219C10.3906 20.3984 7.05469 20.3984 4.92188 22.4219C2.73438 24.5 0 35 0 35C0 35 10.5 32.2656 12.6328 30.1328Z" fill="url(#paint0_linear_100_437)"/>
<path d="M20.2344 24.6094L19.3594 25.4844C18.9219 25.9219 18.2656 25.9219 17.8281 25.4844L9.51562 17.1719C9.07813 16.7344 9.07813 16.0781 9.51562 15.6406L10.3906 14.7656L20.2344 24.6094Z" fill="url(#paint1_linear_100_437)"/>
<path d="M35 0C35 6.28906 32.4844 12.3594 28.0547 16.7891L20.2344 24.6094L10.3906 14.7656L18.1563 6.94531C22.6406 2.51562 28.7109 0 35 0Z" fill="url(#paint2_linear_100_437)"/>
<path d="M12.5781 26.25C13.5078 25.0469 13.2344 23.3516 12.0312 22.4219C11.0469 21.7109 9.73438 21.7109 8.75 22.4219C7.65625 23.5156 6.01562 28.9844 6.01562 28.9844C6.01562 28.9844 11.5391 27.3438 12.5781 26.25Z" fill="url(#paint3_linear_100_437)"/>
<path d="M17.5 7.65625H16.625C11.9219 7.65625 7.4375 9.51562 4.10156 12.8516C3.71875 13.2344 3.71875 13.8359 4.10156 14.1641C4.32031 14.3828 4.70312 14.4922 5.03125 14.3828C6.78125 13.8906 8.69531 14 10.3906 14.7109L17.5 7.65625Z" fill="url(#paint4_linear_100_437)"/>
<path d="M27.3438 17.5V18.375C27.3438 23.0781 25.4844 27.5625 22.1484 30.8984C21.7656 31.2812 21.1641 31.2812 20.8359 30.8984C20.6172 30.6797 20.5078 30.2969 20.6172 29.9688C21.1094 28.2188 21 26.3047 20.2891 24.6094L27.3438 17.5Z" fill="url(#paint5_linear_100_437)"/>
<path d="M35 0C35 2.1875 34.6719 4.375 34.0703 6.50781C31.1719 6.07031 28.9297 3.82813 28.4922 0.929688C30.625 0.328125 32.8125 0 35 0Z" fill="url(#paint6_linear_100_437)"/>
<path d="M25.7031 12.5781C27.5153 12.5781 28.9844 11.1091 28.9844 9.29688C28.9844 7.48469 27.5153 6.01562 25.7031 6.01562C23.8909 6.01562 22.4219 7.48469 22.4219 9.29688C22.4219 11.1091 23.8909 12.5781 25.7031 12.5781Z" fill="url(#paint7_linear_100_437)"/>
<path d="M25.7031 13.125C23.5703 13.125 21.875 11.4297 21.875 9.29688C21.875 7.16406 23.5703 5.46875 25.7031 5.46875C27.8359 5.46875 29.5312 7.16406 29.5312 9.29688C29.5312 11.4297 27.8359 13.125 25.7031 13.125ZM25.7031 6.5625C24.1719 6.5625 22.9688 7.76562 22.9688 9.29688C22.9688 10.8281 24.1719 12.0312 25.7031 12.0312C27.2344 12.0312 28.4375 10.8281 28.4375 9.29688C28.4375 7.76562 27.2344 6.5625 25.7031 6.5625Z" fill="url(#paint8_linear_100_437)"/>
<path d="M12.5781 23.5156C12.3047 23.5156 12.0312 23.4063 11.8125 23.1875C11.375 22.75 11.375 22.0937 11.8125 21.6562L19.4687 14C19.9062 13.5625 20.5625 13.5625 21 14C21.4375 14.4375 21.4375 15.0937 21 15.5312L13.3437 23.1875C13.125 23.4063 12.8516 23.5156 12.5781 23.5156Z" fill="url(#paint9_linear_100_437)"/>
</g>
<defs>
<linearGradient id="paint0_linear_100_437" x1="0" y1="27.924" x2="14.2188" y2="27.924" gradientUnits="userSpaceOnUse">
<stop stop-color="#E9A254"/>
<stop offset="1" stop-color="#F4BB79"/>
</linearGradient>
<linearGradient id="paint1_linear_100_437" x1="9.20281" y1="20.2951" x2="20.2617" y2="20.2951" gradientUnits="userSpaceOnUse">
<stop stop-color="#474F72"/>
<stop offset="1" stop-color="#878C9F"/>
</linearGradient>
<linearGradient id="paint2_linear_100_437" x1="22.709" y1="24.582" x2="22.709" y2="0" gradientUnits="userSpaceOnUse">
<stop stop-color="#D4D8E1"/>
<stop offset="1" stop-color="#F3F4F5"/>
</linearGradient>
<linearGradient id="paint3_linear_100_437" x1="6.01562" y1="25.4297" x2="13.3984" y2="25.4297" gradientUnits="userSpaceOnUse">
<stop stop-color="#FBCC88"/>
<stop offset="1" stop-color="#FFE5C3"/>
</linearGradient>
<linearGradient id="paint4_linear_100_437" x1="3.83688" y1="11.2109" x2="17.5" y2="11.2109" gradientUnits="userSpaceOnUse">
<stop stop-color="#DA5466"/>
<stop offset="1" stop-color="#F4929C"/>
</linearGradient>
<linearGradient id="paint5_linear_100_437" x1="23.7891" y1="31.1631" x2="23.7891" y2="17.5" gradientUnits="userSpaceOnUse">
<stop stop-color="#DA5466"/>
<stop offset="1" stop-color="#F4929C"/>
</linearGradient>
<linearGradient id="paint6_linear_100_437" x1="31.7516" y1="6.49687" x2="31.7516" y2="0" gradientUnits="userSpaceOnUse">
<stop stop-color="#DA5466"/>
<stop offset="1" stop-color="#F4929C"/>
</linearGradient>
<linearGradient id="paint7_linear_100_437" x1="22.4219" y1="9.29688" x2="28.9844" y2="9.29688" gradientUnits="userSpaceOnUse">
<stop stop-color="#9DD5DF"/>
<stop offset="1" stop-color="#C3E1F5"/>
</linearGradient>
<linearGradient id="paint8_linear_100_437" x1="25.7031" y1="13.125" x2="25.7031" y2="5.46875" gradientUnits="userSpaceOnUse">
<stop stop-color="#949AAF"/>
<stop offset="1" stop-color="#C6CCDA"/>
</linearGradient>
<linearGradient id="paint9_linear_100_437" x1="16.4063" y1="23.5156" x2="16.4063" y2="13.6719" gradientUnits="userSpaceOnUse">
<stop stop-color="#DA5466"/>
<stop offset="1" stop-color="#F4929C"/>
</linearGradient>
<clipPath id="clip0_100_437">
<rect width="35" height="35" fill="white"/>
</clipPath>
</defs>
</svg>
