<svg width="35" height="35" viewBox="0 0 35 35" fill="none" xmlns="http://www.w3.org/2000/svg">
<path d="M34.1797 18.1727C33.9938 18.3641 33.7805 18.5281 33.5508 18.6539C33.857 19.1024 34.032 19.6438 34.032 20.2234C34.032 20.9672 33.7422 21.6672 33.2117 22.1977C33.0641 22.3453 32.9055 22.4711 32.7359 22.5805C33.0805 23.0508 33.2828 23.625 33.2828 24.2485C33.2828 24.9813 32.982 25.6977 32.4625 26.2227C32.2547 26.4305 32.0141 26.6055 31.757 26.7367C32.0342 27.1578 32.1921 27.6461 32.2141 28.1498C32.236 28.6534 32.1211 29.1536 31.8817 29.5972C31.6422 30.0408 31.2871 30.4113 30.854 30.6693C30.4209 30.9273 29.926 31.0632 29.4219 31.0625H18.5664C18.4953 31.0625 18.4242 31.0625 18.3586 31.057C18.2328 31.0625 18.0141 31.0734 17.7242 31.0734C16.5594 31.0734 14.3172 30.9258 13.2016 29.8703C12.7477 29.4383 12.507 28.886 12.507 28.2735C12.507 27.836 12.857 27.486 13.2891 27.486C13.7211 27.486 14.0711 27.836 14.0711 28.2735C14.0711 28.4539 14.1367 28.5961 14.2789 28.7328C15.0008 29.4109 17.0898 29.5586 18.3203 29.4875C18.3531 29.4875 18.3969 29.4875 18.4297 29.493C18.4734 29.493 18.5172 29.4984 18.5664 29.4984H29.4219C29.7445 29.4984 30.0563 29.3672 30.2859 29.1375C30.5211 28.9024 30.6469 28.5961 30.6469 28.2735C30.6469 27.5899 30.0945 27.043 29.4219 27.043C28.9898 27.043 28.6344 26.6875 28.6344 26.2555C28.6344 25.8235 28.9898 25.4734 29.4219 25.4734H30.4883C30.8109 25.4734 31.1281 25.3422 31.3578 25.1125C31.582 24.8828 31.7133 24.5711 31.7133 24.2485C31.7133 23.5703 31.1664 23.018 30.4883 23.018C30.0562 23.018 29.7062 22.668 29.7062 22.2305C29.7062 21.7985 30.0562 21.4485 30.4883 21.4485H31.2375C31.5656 21.4485 31.8719 21.3227 32.107 21.0875C32.3367 20.8578 32.468 20.5516 32.468 20.2234C32.468 19.5453 31.9156 18.9985 31.2375 18.9985C30.8055 18.9985 30.4555 18.6484 30.4555 18.2109C30.4555 17.7789 30.8055 17.4289 31.2375 17.4289H32.2055C32.5336 17.4289 32.8398 17.3031 33.0695 17.068C33.3594 16.7781 33.4852 16.368 33.4086 15.9688C33.3047 15.4 32.7469 14.9734 32.107 14.9734H21.9734C21.618 14.9734 21.2789 14.7985 21.0711 14.5086C20.8633 14.2188 20.8086 13.8414 20.9234 13.5024C21.5687 11.6102 21.8914 9.63048 21.8914 7.62892V6.21798C21.8921 6.04352 21.8582 5.87065 21.7916 5.70939C21.725 5.54814 21.6271 5.40171 21.5035 5.2786C21.3799 5.15549 21.233 5.05815 21.0715 4.99222C20.91 4.9263 20.737 4.89309 20.5625 4.89454H19.157V7.46486C19.157 9.08361 18.6484 10.6149 17.6859 11.9C15.9578 14.2133 15.0063 16.2094 15.0063 17.5219C15.0063 17.9539 14.6562 18.3039 14.2242 18.3039H13.2891C13.0817 18.3039 12.8827 18.2215 12.7361 18.0749C12.5894 17.9282 12.507 17.7293 12.507 17.5219C12.507 17.3145 12.5894 17.1156 12.7361 16.9689C12.8827 16.8222 13.0817 16.7399 13.2891 16.7399H13.5078C13.8305 14.7875 15.2305 12.5672 16.4336 10.9594C17.1883 9.94767 17.5875 8.73907 17.5875 7.46486V4.10704C17.5875 3.67501 17.943 3.32501 18.375 3.32501H20.5625C21.3391 3.32501 22.0664 3.62579 22.6133 4.17267C23.1602 4.71954 23.4609 5.44689 23.4609 6.21798V7.62892C23.4609 9.5922 23.1711 11.5336 22.6023 13.4039H32.107C33.507 13.4039 34.7047 14.3609 34.9508 15.6789C35.1203 16.5867 34.8359 17.5219 34.1797 18.1727ZM6.08672 15.2742H0.782031C0.35 15.2742 0 15.6242 0 16.0563V30.893C0 31.325 0.35 31.675 0.782031 31.675H6.08672C6.51875 31.675 6.86875 31.325 6.86875 30.893V16.0563C6.86875 15.6242 6.51875 15.2742 6.08672 15.2742ZM5.29922 30.1055H1.56953V16.8383H5.29922V30.1055Z" fill="black"/>
<path d="M1.56934 16.8383H5.29902V30.1054H1.56934V16.8383Z" fill="#4BBADD"/>
<path d="M10.6586 29.482H8.38359C8.17619 29.482 7.97727 29.3997 7.83061 29.253C7.68395 29.1063 7.60156 28.9074 7.60156 28.7C7.60156 28.4926 7.68395 28.2937 7.83061 28.147C7.97727 28.0004 8.17619 27.918 8.38359 27.918H9.87656V16.8383H8.38359C8.17619 16.8383 7.97727 16.7559 7.83061 16.6092C7.68395 16.4626 7.60156 16.2637 7.60156 16.0563C7.60156 15.8489 7.68395 15.6499 7.83061 15.5033C7.97727 15.3566 8.17619 15.2742 8.38359 15.2742H10.6586C11.0906 15.2742 11.4406 15.6242 11.4406 16.0563V28.6945C11.4461 29.132 11.0906 29.482 10.6586 29.482Z" fill="black"/>
<path d="M30.4553 18.2109C30.4553 18.6484 30.8053 18.9984 31.2373 18.9984C31.9154 18.9984 32.4678 19.5453 32.4678 20.2234C32.4678 20.5515 32.3365 20.8578 32.1068 21.0875C31.8717 21.3226 31.5654 21.4484 31.2373 21.4484H30.4881C30.0561 21.4484 29.7061 21.7984 29.7061 22.2305C29.7061 22.668 30.0561 23.018 30.4881 23.018C31.1662 23.018 31.7131 23.5703 31.7131 24.2484C31.7131 24.5711 31.5818 24.8828 31.3576 25.1125C31.1279 25.3422 30.8107 25.4734 30.4881 25.4734H29.4217C28.9896 25.4734 28.6342 25.8234 28.6342 26.2555C28.6342 26.6875 28.9896 27.043 29.4217 27.043C30.0943 27.043 30.6467 27.5898 30.6467 28.2734C30.6467 28.5961 30.5209 28.9023 30.2857 29.1375C30.0561 29.3672 29.7443 29.4984 29.4217 29.4984H18.5662C18.517 29.4984 18.4732 29.493 18.4295 29.493C18.3967 29.4875 18.3529 29.4875 18.3201 29.4875C17.0896 29.5586 15.0006 29.4109 14.2787 28.7328C14.1365 28.5961 14.0709 28.4539 14.0709 28.2734C14.0709 27.8359 13.7209 27.4859 13.2889 27.4859C12.8568 27.4859 12.5068 27.8359 12.5068 28.2734V17.5219C12.5068 17.9539 12.8568 18.3039 13.2889 18.3039H14.224C14.6561 18.3039 15.0061 17.9539 15.0061 17.5219C15.0061 16.2094 15.9576 14.2133 17.6857 11.9C18.6482 10.6148 19.1568 9.08358 19.1568 7.46483V4.89452H20.5623C20.7368 4.89307 20.9098 4.92627 21.0713 4.9922C21.2328 5.05812 21.3797 5.15547 21.5033 5.27858C21.6269 5.40168 21.7248 5.54811 21.7914 5.70937C21.858 5.87062 21.8919 6.04349 21.8912 6.21795V7.62889C21.8912 9.63045 21.5686 11.6101 20.9232 13.5023C20.8084 13.8414 20.8631 14.2187 21.0709 14.5086C21.2787 14.7984 21.6178 14.9734 21.9732 14.9734H32.1068C32.7467 14.9734 33.3045 15.4 33.4084 15.9687C33.485 16.368 33.3592 16.7781 33.0693 17.068C32.8396 17.3031 32.5334 17.4289 32.2053 17.4289H31.2373C30.8053 17.4289 30.4553 17.7789 30.4553 18.2109Z" fill="#4BBADD"/>
</svg>
